<svg xmlns="http://www.w3.org/2000/svg" width="256" height="256"><path d="M220.16 128c-9.587 23.455-20.78 38.449-30.606 47.968-13.924 13.487-25.108 15.986-25.108 15.986s-1.073-29.057-4.604-35.727 16.767-30.58 19.514-50.591c2.993-21.798-2.354-41.197-2.354-41.197s25.896-14.909 39.628-12.556c9.445 1.619 12.95 3.795 14.218 4.996.576.545.691.89.691.89S242.131 74.248 220.16 128m-63.954.785c-12.529-39.343-58.098-47.24-90.533-21.082s-29.399 78.122 30.344 83.706c55.978 5.231 55.194-71.674 1.83-65.656-54.243 6.116-17.788 53.885 6.54 38.191S97.586 133.6 88.43 143.017s4.186 12.818 9.156 10.725-2.093-4.97-2.354-7.587 15.433-.785 10.202 7.063-19.357 9.156-24.326-2.616 16.741-18.834 31.652-13.864 12.453 37.559-13.05 39.128-40.051-8.261-40.412-32.957c-.351-23.96 47.475-44.335 71.409-23.149s30.211 57.676 1.176 82.002-87.886 9.809-102.011-32.957 8.669-76.827 38.449-96.127c30.313-19.645 96.911-6.67 96.911-6.67s4.708 9.417 3.532 30.604-12.556 32.173-12.556 32.173m93.38-48.26c-1.11-8.992-4.554-19.112-11.557-28.513-17.748-23.828-58.365-43.046-141.853-27.593C-17.923 45.537-13.686 196.922 53.018 230.404c60.902 30.57 116.892 4.009 144.387-26.822 2.619-2.936 4.98-5.912 7.062-8.881 23.933-34.135 48.492-86.872 45.12-114.175"/></svg>