<?xml version="1.0" encoding="UTF-8" standalone="no"?>
<svg
   width="256"
   height="256"
   version="1.1"
   id="svg20"
   sodipodi:docname="logo.svg"
   inkscape:version="1.2.2 (732a01da63, 2022-12-09, custom)"
   xmlns:inkscape="http://www.inkscape.org/namespaces/inkscape"
   xmlns:sodipodi="http://sodipodi.sourceforge.net/DTD/sodipodi-0.dtd"
   xmlns="http://www.w3.org/2000/svg"
   xmlns:svg="http://www.w3.org/2000/svg">
  <defs
     id="defs24" />
  <sodipodi:namedview
     id="namedview22"
     pagecolor="#ffffff"
     bordercolor="#000000"
     borderopacity="0.25"
     inkscape:showpageshadow="2"
     inkscape:pageopacity="0.0"
     inkscape:pagecheckerboard="0"
     inkscape:deskcolor="#d1d1d1"
     showgrid="false"
     inkscape:zoom="2.419631"
     inkscape:cx="136.79772"
     inkscape:cy="86.583449"
     inkscape:window-width="1848"
     inkscape:window-height="1016"
     inkscape:window-x="72"
     inkscape:window-y="27"
     inkscape:window-maximized="1"
     inkscape:current-layer="svg20" />
  <path
     id="path9159"
     style="display:inline;fill:#ffffff;fill-opacity:1;stroke:#ffffff;stroke-width:0"
     d="M 144.51733,3.215695 C 124.49974,3.9125322 104.32036,5.6791353 85.02146,11.544239 64.212408,17.763614 45.156081,30.256998 30.939797,47.257595 22.453516,57.097459 14.744434,67.961025 10.102418,80.360271 4.7017349,94.545313 1.8364367,109.68384 0.7579448,124.87238 c -1.46219504,21.9127 1.2971763,44.30469 9.3084602,64.69882 4.868982,12.29361 11.988126,23.70729 21.332355,32.82894 9.466929,9.36392 20.876257,16.38007 32.830029,21.72952 19.455382,8.528 41.181631,11.49794 62.069341,8.13971 26.7108,-4.00073 52.16536,-16.85793 71.54842,-36.40256 11.74594,-11.98744 20.9709,-26.3527 29.06983,-41.18369 10.22912,-18.84737 18.45493,-38.90468 24.09457,-59.74992 3.11376,-11.87698 5.2406,-24.184313 4.703,-36.540048 -0.78072,-12.251747 -5.324,-23.972144 -11.6827,-34.213046 -8.8093,-14.060701 -21.93659,-25.13096 -36.9968,-31.162573 -16.15493,-6.6988239 -33.6286,-9.1507675 -50.92559,-9.689629 -3.8626,-0.119268 -7.72755,-0.1312146 -11.59153,-0.112209 z" />
  <path
     d="m 215.38206,125.45534 c -9.09024,22.80411 -19.70326,37.38202 -29.02012,46.63687 -13.20251,13.11273 -23.807,15.54237 -23.807,15.54237 0,0 -1.0174,-28.25065 -4.36544,-34.73555 -3.34804,-6.4849 15.8982,-29.73139 18.50286,-49.18708 2.83792,-21.193093 -2.23203,-40.053763 -2.23203,-40.053763 0,0 24.55418,-14.495269 37.57464,-12.207565 8.9556,1.574071 12.27899,3.689687 13.48128,4.857358 0.54616,0.529875 0.6552,0.865303 0.6552,0.865303 0,0 10.04317,16.021698 -10.78939,68.282057 m -60.64016,0.76321 C 142.86211,87.967343 99.654301,80.289488 68.899956,105.7216 c -30.754349,25.43209 -27.875662,75.95408 28.771697,81.38311 53.077447,5.08584 52.334067,-69.68501 1.735174,-63.834 -51.432344,5.94626 -16.866295,52.38965 6.201123,37.13117 23.06743,-15.25847 -6.448598,-29.50193 -15.130169,-20.34626 -8.681573,9.15568 3.969098,12.46229 8.681571,10.42738 4.712478,-2.03493 -1.984547,-4.8321 -2.232024,-7.37646 -0.247475,-2.54438 14.633322,-0.76323 9.673372,6.86699 -4.95995,7.63022 -18.353996,8.90191 -23.065522,-2.5434 -4.711527,-11.44534 15.873546,-18.31135 30.011922,-13.47927 14.13837,4.83206 11.80773,36.51671 -12.3738,38.04217 -24.181541,1.52547 -37.975722,-8.03176 -38.318017,-32.04242 -0.332812,-23.29511 45.015037,-43.104693 67.708877,-22.5066 22.69384,20.59806 28.64558,56.07546 1.11507,79.7264 -27.53053,23.65095 -83.33211,9.53679 -96.72521,-32.04242 -13.3931,-41.57923 8.219807,-74.695024 36.456728,-93.459439 28.742312,-19.099842 91.889462,-6.484905 91.889462,-6.484905 0,0 4.46405,9.155674 3.34898,29.754728 -1.11506,20.599036 -11.90539,31.280176 -11.90539,31.280176 M 243.28522,79.297793 C 242.23274,70.555325 238.9672,60.716159 232.32706,51.576042 215.49869,28.409279 176.9863,9.7245875 97.824311,24.748759 -10.364436,45.280726 -6.3469804,192.46472 56.900688,225.01758 114.647,254.73925 167.73581,228.91533 193.80613,198.93991 c 2.4833,-2.85452 4.72197,-5.74794 6.69608,-8.63455 22.69289,-33.18774 45.97934,-84.46126 42.78207,-111.006594"
     id="path18"
     style="fill:#2e3192;fill-opacity:1;stroke-width:0.960142" />
</svg>
